<svg width="20" height="6" viewBox="0 0 20 6" fill="none" xmlns="http://www.w3.org/2000/svg">
<g clip-path="url(#clip0_191_378)">
<path d="M-5.58538 3.67687L-5.75431 3.79382L-5.59146 3.91909C-5.52491 3.97028 -5.45802 4.02207 -5.39059 4.07426C-4.14042 5.04211 -2.70912 6.1502 0 6.1502C2.70912 6.1502 4.14042 5.04211 5.39059 4.07426C5.45802 4.02207 5.52491 3.97028 5.59146 3.91909L5.59177 3.91949L5.6009 3.91119C6.15025 3.41178 6.66213 2.97434 7.29208 2.65936C7.91904 2.34588 8.67068 2.1502 9.7 2.1502C10.7289 2.1502 11.4551 2.34569 12.0694 2.65883C12.6567 2.95825 13.1468 3.36714 13.7108 3.8377C13.7416 3.86342 13.7727 3.88934 13.804 3.91543L13.8039 3.91552L13.8085 3.91909C13.8751 3.97028 13.942 4.02207 14.0094 4.07427C15.2596 5.04212 16.6909 6.1502 19.4 6.1502C22.1091 6.1502 23.5404 5.04212 24.7906 4.07427C24.858 4.02207 24.9249 3.97028 24.9915 3.91909L25.1603 3.78921L24.9811 3.67402L23.5811 2.77402L23.4843 2.71177L23.3991 2.7892C22.8498 3.28861 22.3379 3.72605 21.7079 4.04103C21.081 4.35451 20.3293 4.55019 19.3 4.55019C18.2711 4.55019 17.5449 4.3547 16.9306 4.04156C16.3433 3.74214 15.8532 3.33325 15.2892 2.86269C15.2584 2.83696 15.2273 2.81105 15.196 2.78496C13.9898 1.7798 12.455 0.550195 9.7 0.550195C6.99088 0.550195 5.55958 1.65828 4.30941 2.62613C4.24198 2.67833 4.17509 2.73012 4.10854 2.7813L4.10847 2.78121L4.10397 2.78496C4.07267 2.81105 4.04161 2.83696 4.01077 2.86269C3.44678 3.33324 2.95669 3.74214 2.36937 4.04156C1.75513 4.3547 1.02887 4.55019 0 4.55019C-1.02887 4.55019 -1.75513 4.3547 -2.36937 4.04156C-2.95669 3.74214 -3.44678 3.33324 -4.01077 2.86269C-4.04161 2.83696 -4.07267 2.81105 -4.10397 2.78496L-4.1916 2.71194L-4.28538 2.77687L-5.58538 3.67687Z" fill="#E5BCF9" stroke="#E5BCF9" stroke-width="0.3"/>
</g>
<defs>
<clipPath id="clip0_191_378">
<rect width="19.3" height="6" fill="white"/>
</clipPath>
</defs>
</svg>
